# xmcd
#
# Track frame offsets:
#       150
#       12240
#       36370
#       52427
#       72655
#       81357
#       110677
#       112440
#       133295
#       146485
#       162640
#       174730
#       185767
#       196567
#       199110
#       209927
#
# Disc length: 2987 seconds
#
# Revision: 1
# Processed by: cddbd v1.5.1PL0 Copyright (c) Steve Scherf et al.
# Submitted via: MusiCat 1.1
#
DISCID=130ba910
DTITLE=Orquestra Experimental UFSCar - Orquestra Experimental UFSCar
DYEAR=1900
DGENRE=
TTITLE0=Marcha soldado
TTITLE1=Coletânia infantil
TTITLE2=Anos dourados
TTITLE3=Asa branca
TTITLE4=Carinhoso
TTITLE5=Luar do sertão
TTITLE6=Carinhoso (vilheta)
TTITLE7=Acalanto
TTITLE8=Pensando em ti
TTITLE9=Everything happens to me
TTITLE10=Concertino para piano
TTITLE11=Sinfonia dos brinquedos: Allegro
TTITLE12=Sinfonia dos brinquedos: Minueto
TTITLE13=Sinfonia dos brinquedos/Finale: Allegro
TTITLE14=Dança húngara
TTITLE15=Ukranian Carol
EXTD=\n\n
EXTT0=
EXTT1=
EXTT2=
EXTT3=
EXTT4=
EXTT5=
EXTT6=
EXTT7=
EXTT8=
EXTT9=
EXTT10=
EXTT11=
EXTT12=\n
EXTT13=
EXTT14=
EXTT15=
PLAYORDER=
